<?xml version="1.0" standalone="no"?>
<!DOCTYPE svg PUBLIC "-//W3C//DTD SVG 20010904//EN"
 "http://www.w3.org/TR/2001/REC-SVG-20010904/DTD/svg10.dtd">
<svg version="1.0" xmlns="http://www.w3.org/2000/svg"
 width="4836.000000pt" height="1533.000000pt" viewBox="0 0 4836.000000 1533.000000"
 preserveAspectRatio="xMidYMid meet">

<g transform="translate(0.000000,1533.000000) scale(0.100000,-0.100000)"
fill="crimson" stroke="none">
<path d="M44895 11044 c-258 -7 -501 -18 -538 -24 -132 -20 -249 -106 -307
-225 -21 -41 -286 -1021 -849 -3135 -793 -2978 -818 -3075 -798 -3083 39 -15
241 -20 346 -8 250 27 523 133 741 288 118 84 360 325 456 453 175 234 343
541 447 815 15 39 288 1040 607 2225 320 1185 592 2188 606 2228 66 195 31
369 -91 450 -40 26 -57 32 -99 31 -28 -1 -262 -8 -521 -15z"/>
<path d="M16220 11020 c-118 -4 -334 -11 -480 -15 -291 -8 -342 -16 -429 -68
-124 -74 -158 -145 -260 -537 -44 -168 -114 -433 -156 -590 -112 -420 -491
-1847 -606 -2285 -55 -209 -234 -882 -397 -1495 -279 -1049 -297 -1120 -296
-1200 0 -165 79 -266 232 -299 35 -7 216 -11 534 -11 558 0 520 -7 638 111 65
65 131 172 165 270 16 44 674 2463 773 2839 l59 225 279 -1 c412 -1 755 -39
918 -102 133 -52 336 -224 421 -357 130 -202 179 -464 142 -745 -15 -113 -386
-1692 -428 -1820 -30 -94 -30 -210 0 -273 32 -65 92 -114 171 -138 62 -19 91
-19 585 -17 l520 3 50 24 c104 51 214 182 271 321 25 62 409 1878 441 2086 24
158 24 585 0 749 -50 332 -136 575 -287 805 -330 501 -875 821 -1607 946 -115
19 -180 24 -317 24 -95 0 -308 3 -473 7 l-300 6 28 106 c131 495 244 909 264
974 32 100 41 199 25 265 -28 118 -120 203 -214 200 -28 -1 -148 -4 -266 -8z"/>
<path d="M4455 11013 c-86 -12 -201 -49 -295 -95 -89 -44 -118 -65 -191 -138
-98 -97 -156 -188 -194 -305 -22 -68 -1545 -5932 -1545 -5949 0 -11 1075 -7
1157 5 97 13 225 56 299 100 64 39 166 134 187 176 8 15 198 712 422 1548 225
836 411 1523 415 1528 3 4 220 3 481 -2 457 -9 478 -10 588 -35 133 -31 214
-71 331 -163 160 -126 284 -312 326 -491 32 -138 -2 -398 -77 -578 -96 -229
-290 -417 -519 -501 -85 -31 -94 -31 -640 -24 l-305 5 -67 -27 c-90 -35 -169
-90 -249 -173 -132 -139 -116 -98 -284 -739 -47 -181 -102 -387 -121 -456 -19
-70 -34 -133 -34 -141 0 -14 49 -17 368 -24 556 -13 1190 -11 1297 4 475 67
831 195 1158 414 524 352 898 963 1001 1633 37 243 48 580 26 807 -25 257
-109 556 -216 774 -286 579 -853 1005 -1589 1194 -152 39 -266 48 -709 54
-191 3 -350 6 -352 8 -2 3 400 1510 422 1581 5 16 -24 17 -528 16 -293 -1
-546 -4 -563 -6z"/>
<path d="M21545 11013 c-86 -12 -201 -49 -295 -95 -89 -44 -118 -65 -191 -138
-98 -97 -156 -188 -194 -305 -22 -68 -1545 -5932 -1545 -5949 0 -11 1075 -7
1157 5 97 13 225 56 300 100 77 47 172 143 210 215 25 47 164 553 642 2335
335 1251 613 2287 617 2303 l7 29 331 -7 c809 -18 891 -30 1087 -158 223 -146
377 -371 408 -593 16 -116 -16 -340 -70 -490 -91 -252 -305 -465 -542 -540
-78 -25 -81 -25 -470 -25 -429 0 -453 -3 -565 -59 -32 -16 -83 -50 -114 -75
-58 -47 -166 -174 -195 -229 -9 -18 -80 -295 -158 -617 l-141 -585 696 -3
c573 -2 722 0 850 13 1058 107 1816 692 2135 1649 90 271 129 543 128 906 0
255 -14 395 -59 600 -143 640 -539 1138 -1151 1448 -236 119 -449 195 -693
247 l-120 25 -1018 -1 c-559 -1 -1030 -4 -1047 -6z"/>
<path d="M32154 9489 c-2 -3 -277 -1034 -611 -2290 -579 -2176 -608 -2288
-607 -2369 0 -165 79 -266 232 -299 35 -7 216 -11 534 -11 558 0 520 -7 638
111 65 65 131 172 165 270 16 44 674 2463 773 2839 l59 225 279 -1 c412 -1
755 -39 918 -102 133 -52 336 -224 421 -357 130 -202 179 -464 142 -745 -15
-113 -386 -1692 -428 -1820 -30 -94 -30 -210 0 -273 32 -65 92 -114 171 -138
62 -19 91 -19 585 -17 l520 3 50 24 c104 51 214 182 271 321 25 62 409 1878
441 2086 24 158 24 585 0 749 -50 332 -136 575 -287 805 -333 505 -898 834
-1632 949 -126 20 -199 22 -1381 34 -687 6 -1251 9 -1253 6z"/>
<path d="M26286 9473 c-3 -10 -19 -67 -36 -128 -17 -60 -47 -155 -66 -210 -62
-174 -85 -287 -91 -436 -5 -107 -2 -152 11 -213 49 -220 206 -378 432 -436 75
-19 117 -20 1533 -20 1416 0 1457 -1 1487 -19 36 -22 80 -104 89 -166 5 -33
-35 -190 -215 -845 -122 -443 -232 -828 -244 -856 -31 -68 -89 -130 -149 -161
l-50 -25 -891 1 -891 1 -37 41 c-99 109 -86 250 34 366 l43 42 580 3 c558 4
583 5 657 26 246 68 425 233 519 477 43 110 76 266 85 391 l7 104 -1236 0
c-1191 0 -1239 -1 -1352 -20 -508 -87 -873 -392 -1039 -868 -56 -163 -80 -304
-72 -437 31 -495 156 -855 388 -1112 202 -224 477 -366 763 -394 55 -5 746
-18 1535 -29 1584 -20 1531 -22 1721 40 311 102 539 306 684 612 38 80 83 242
319 1133 325 1231 340 1291 367 1443 30 169 37 478 15 631 -81 545 -432 906
-1025 1054 l-86 21 -1892 3 c-1802 3 -1892 3 -1897 -14z"/>
<path d="M9995 9423 c-11 -2 -56 -11 -100 -19 -44 -8 -132 -33 -196 -54 -354
-118 -661 -353 -874 -670 -129 -194 -108 -130 -449 -1361 -173 -624 -320
-1161 -327 -1194 -22 -94 -18 -409 5 -515 88 -403 345 -728 759 -958 103 -57
203 -92 347 -121 39 -8 554 -12 1755 -14 l1700 -2 65 31 c171 81 297 250 360
479 12 44 83 264 157 488 74 225 133 410 132 411 -2 2 -774 13 -1716 25 -1073
14 -1726 26 -1749 33 -123 34 -189 129 -187 273 0 72 20 152 187 760 123 444
198 702 219 744 56 116 176 219 282 246 33 8 749 6 1275 -4 l336 -6 49 -35
c28 -20 65 -58 83 -84 41 -62 41 -99 1 -261 l-31 -124 -42 -5 c-22 -3 -309
-12 -637 -21 -439 -12 -610 -20 -649 -30 -103 -27 -180 -73 -266 -159 -86 -86
-137 -166 -186 -293 -31 -79 -143 -552 -133 -561 3 -3 575 -20 1270 -36 l1264
-30 95 21 c436 99 759 468 907 1037 26 104 59 286 125 701 22 141 26 189 21
280 -18 336 -180 630 -440 800 -145 94 -288 148 -490 185 -105 20 -180 22
-1232 35 -1103 14 -1651 17 -1690 8z"/>
<path d="M38995 9423 c-11 -2 -56 -11 -100 -19 -44 -8 -132 -33 -196 -54 -354
-118 -661 -353 -874 -670 -129 -194 -108 -130 -449 -1361 -173 -624 -320
-1161 -327 -1194 -22 -94 -18 -409 5 -515 88 -403 345 -728 759 -958 103 -57
203 -92 347 -121 39 -8 554 -12 1755 -14 l1700 -2 65 31 c171 81 297 250 360
479 12 44 83 264 157 488 74 225 133 410 132 411 -2 2 -774 13 -1716 25 -1073
14 -1726 26 -1749 33 -123 34 -189 129 -187 273 0 72 20 152 187 760 123 444
198 702 219 744 56 116 176 219 282 246 33 8 749 6 1275 -4 l336 -6 49 -35
c28 -20 65 -58 83 -84 41 -62 41 -99 1 -261 l-31 -124 -42 -5 c-22 -3 -309
-12 -637 -21 -439 -12 -610 -20 -649 -30 -103 -27 -180 -73 -266 -159 -86 -86
-137 -166 -186 -293 -31 -79 -143 -552 -133 -561 3 -3 575 -20 1270 -36 l1264
-30 95 21 c436 99 759 468 907 1037 26 104 59 286 125 701 22 141 26 189 21
280 -18 336 -180 630 -440 800 -145 94 -288 148 -490 185 -105 20 -180 22
-1232 35 -1103 14 -1651 17 -1690 8z"/>
</g>
</svg>
